{
  "accessors": [
    {
      "bufferView": 2,
      "componentType": 5126,
      "count": 60832,
      "max": [
        327.71514892578125,
        1348.965087890625,
        1075.482177734375
      ],
      "min": [
        -319.0489501953125,
        -440.7995300292969,
        -1669.2001953125
      ],
      "type": "VEC3"
    },
    {
      "bufferView": 2,
      "byteOffset": 729984,
      "componentType": 5126,
      "count": 60832,
      "max": [
        1.0,
        1.0,
        1.0
      ],
      "min": [
        -1.0,
        -1.0,
        -1.0
      ],
      "type": "VEC3"
    },
    {
      "bufferView": 3,
      "componentType": 5126,
      "count": 60832,
      "max": [
        1.0,
        1.0,
        1.0,
        1.0
      ],
      "min": [
        -1.0,
        -1.0,
        -1.0,
        -1.0
      ],
      "type": "VEC4"
    },
    {
      "bufferView": 1,
      "componentType": 5126,
      "count": 60832,
      "max": [
        0.9919717311859131,
        0.9900000095367432
      ],
      "min": [
        0.009999999776482582,
        0.009621411561965942
      ],
      "type": "VEC2"
    },
    {
      "bufferView": 1,
      "byteOffset": 486656,
      "componentType": 5126,
      "count": 60832,
      "max": [
        0.9919717311859131,
        0.9900000095367432
      ],
      "min": [
        0.009999999776482582,
        0.009621411561965942
      ],
      "type": "VEC2"
    },
    {
      "bufferView": 1,
      "byteOffset": 973312,
      "componentType": 5126,
      "count": 60832,
      "max": [
        0.9919717311859131,
        0.9900000095367432
      ],
      "min": [
        0.009999999776482582,
        0.009621411561965942
      ],
      "type": "VEC2"
    },
    {
      "bufferView": 0,
      "componentType": 5125,
      "count": 187839,
      "type": "SCALAR"
    }
  ],
  "asset": {
    "extras": {
      "author": "Harry_L (https://sketchfab.com/Harry_L)",
      "license": "CC-BY-4.0 (http://creativecommons.org/licenses/by/4.0/)",
      "source": "https://sketchfab.com/3d-models/galleon-35268caddd88449589d00fa0f739ab0c",
      "title": "Galleon"
    },
    "generator": "Sketchfab-12.67.0",
    "version": "2.0"
  },
  "bufferViews": [
    {
      "buffer": 0,
      "byteLength": 751356,
      "name": "floatBufferViews",
      "target": 34963
    },
    {
      "buffer": 0,
      "byteLength": 1459968,
      "byteOffset": 751356,
      "byteStride": 8,
      "name": "floatBufferViews",
      "target": 34962
    },
    {
      "buffer": 0,
      "byteLength": 1459968,
      "byteOffset": 2211324,
      "byteStride": 12,
      "name": "floatBufferViews",
      "target": 34962
    },
    {
      "buffer": 0,
      "byteLength": 973312,
      "byteOffset": 3671292,
      "byteStride": 16,
      "name": "floatBufferViews",
      "target": 34962
    }
  ],
  "buffers": [
    {
      "byteLength": 4644604,
      "uri": "scene.bin"
    }
  ],
  "images": [
    {
      "uri": "textures/lambert4_baseColor.png"
    },
    {
      "uri": "textures/lambert4_metallicRoughness.png"
    },
    {
      "uri": "textures/lambert4_emissive.png"
    },
    {
      "uri": "textures/lambert4_normal.png"
    }
  ],
  "materials": [
    {
      "doubleSided": true,
      "emissiveFactor": [
        1.0,
        1.0,
        1.0
      ],
      "emissiveTexture": {
        "index": 2
      },
      "name": "lambert4",
      "normalTexture": {
        "index": 3
      },
      "occlusionTexture": {
        "index": 1,
        "strength": 0.76
      },
      "pbrMetallicRoughness": {
        "baseColorFactor": [
          0.97,
          0.97,
          0.97,
          1.0
        ],
        "baseColorTexture": {
          "index": 0
        },
        "metallicRoughnessTexture": {
          "index": 1
        }
      }
    }
  ],
  "meshes": [
    {
      "name": "polySurface1499_lambert4_0",
      "primitives": [
        {
          "attributes": {
            "NORMAL": 1,
            "POSITION": 0,
            "TANGENT": 2,
            "TEXCOORD_0": 3,
            "TEXCOORD_1": 4,
            "TEXCOORD_2": 5
          },
          "indices": 6,
          "material": 0,
          "mode": 4
        }
      ]
    }
  ],
  "nodes": [
    {
      "children": [
        1
      ],
      "matrix": [
        1.0,
        0.0,
        0.0,
        0.0,
        0.0,
        2.220446049250313e-16,
        -1.0,
        0.0,
        0.0,
        1.0,
        2.220446049250313e-16,
        0.0,
        0.0,
        0.0,
        0.0,
        1.0
      ],
      "name": "Sketchfab_model"
    },
    {
      "children": [
        2
      ],
      "matrix": [
        1.0,
        0.0,
        0.0,
        0.0,
        0.0,
        0.0,
        1.0,
        0.0,
        0.0,
        -1.0,
        0.0,
        0.0,
        0.0,
        0.0,
        0.0,
        1.0
      ],
      "name": "Old Style Ship.fbx"
    },
    {
      "children": [
        3
      ],
      "name": "RootNode"
    },
    {
      "children": [
        4
      ],
      "name": "polySurface1499"
    },
    {
      "mesh": 0,
      "name": "polySurface1499_lambert4_0"
    }
  ],
  "samplers": [
    {
      "magFilter": 9729,
      "minFilter": 9987,
      "wrapS": 10497,
      "wrapT": 10497
    }
  ],
  "scene": 0,
  "scenes": [
    {
      "name": "Sketchfab_Scene",
      "nodes": [
        0
      ]
    }
  ],
  "textures": [
    {
      "sampler": 0,
      "source": 0
    },
    {
      "sampler": 0,
      "source": 1
    },
    {
      "sampler": 0,
      "source": 2
    },
    {
      "sampler": 0,
      "source": 3
    }
  ]
}
